Gamer-200.ufo
<glyph name="H" format="1">
  <advance width="721"/>
  <unicode hex="0048"/>
  <outline>
    <contour>
      <point x="106" y="0" type="line"/>
      <point x="153" y="0" type="line"/>
      <point x="153" y="680" type="line"/>
      <point x="106" y="680" type="line"/>
    </contour>
    <contour>
      <point x="139" y="312" type="line"/>
      <point x="587" y="312" type="line"/>
      <point x="587" y="356" type="line"/>
      <point x="139" y="356" type="line"/>
    </contour>
    <contour>
      <point x="564" y="0" type="line"/>
      <point x="611" y="0" type="line"/>
      <point x="611" y="680" type="line"/>
      <point x="564" y="680" type="line"/>
    </contour>
  </outline>
</glyph>
<glyph name="a" format="1">
  <advance width="549"/>
  <unicode hex="0061"/>
  <outline>
    <contour>
      <point x="405" y="0" type="line"/>
      <point x="396" y="113" type="line"/>
      <point x="417" y="100" type="line"/>
      <point x="390" y="100" type="line"/>
      <point x="390" y="294" type="line" smooth="yes"/>
      <point x="390" y="356"/>
      <point x="384" y="388"/>
      <point x="363" y="409" type="curve" smooth="yes"/>
      <point x="340" y="432"/>
      <point x="302" y="442"/>
      <point x="239" y="442" type="curve" smooth="yes"/>
      <point x="183" y="442"/>
      <point x="131" y="434"/>
      <point x="84" y="420" type="curve"/>
      <point x="91" y="466" type="line"/>
      <point x="133" y="479"/>
      <point x="189" y="486"/>
      <point x="241" y="486" type="curve" smooth="yes"/>
      <point x="320" y="486"/>
      <point x="371" y="472"/>
      <point x="399" y="444" type="curve" smooth="yes"/>
      <point x="425" y="419"/>
      <point x="435" y="374"/>
      <point x="435" y="293" type="curve" smooth="yes"/>
      <point x="435" y="32" type="line"/>
      <point x="423" y="39" type="line"/>
      <point x="444" y="41"/>
      <point x="470" y="42"/>
      <point x="511" y="42" type="curve"/>
      <point x="511" y="0" type="line"/>
    </contour>
    <contour>
      <point x="226" y="-11" type="curve" smooth="yes" name="SP"/>
      <point x="163" y="-11"/>
      <point x="120" y="1"/>
      <point x="95" y="26" type="curve" smooth="yes"/>
      <point x="74" y="48"/>
      <point x="62" y="81"/>
      <point x="62" y="120" type="curve" smooth="yes"/>
      <point x="62" y="158"/>
      <point x="75" y="191"/>
      <point x="97" y="214" type="curve" smooth="yes"/>
      <point x="122" y="239"/>
      <point x="167" y="250"/>
      <point x="233" y="250" type="curve" smooth="yes" name="SP"/>
      <point x="290" y="250"/>
      <point x="330" y="242"/>
      <point x="355" y="224" type="curve" smooth="yes"/>
      <point x="376" y="208"/>
      <point x="388" y="186"/>
      <point x="392" y="155" type="curve"/>
      <point x="396" y="155" type="line"/>
      <point x="392" y="146" type="line"/>
      <point x="378" y="190"/>
      <point x="327" y="210"/>
      <point x="240" y="210" type="curve" smooth="yes" name="SP"/>
      <point x="144" y="210"/>
      <point x="106" y="185"/>
      <point x="106" y="120" type="curve" smooth="yes"/>
      <point x="106" y="56"/>
      <point x="146" y="31"/>
      <point x="238" y="31" type="curve" smooth="yes" name="SP"/>
      <point x="328" y="31"/>
      <point x="376" y="58"/>
      <point x="392" y="114" type="curve"/>
      <point x="396" y="107" type="line"/>
      <point x="391" y="69"/>
      <point x="380" y="45"/>
      <point x="363" y="27" type="curve" smooth="yes"/>
      <point x="338" y="2"/>
      <point x="294" y="-11"/>
    </contour>
  </outline>
</glyph>
<glyph name="b" format="1">
  <advance width="597"/>
  <unicode hex="0062"/>
  <outline>
    <contour>
      <point x="113" y="0" type="line"/>
      <point x="113" y="641" type="line"/>
      <point x="123" y="632" type="line"/>
      <point x="39" y="632" type="line"/>
      <point x="39" y="675" type="line"/>
      <point x="157" y="675" type="line"/>
      <point x="157" y="129" type="line"/>
      <point x="157" y="0" type="line"/>
    </contour>
    <contour>
      <point x="330" y="-11" type="curve" smooth="yes" name="SP"/>
      <point x="227" y="-11"/>
      <point x="164" y="41"/>
      <point x="156" y="136" type="curve"/>
      <point x="156" y="141" type="line"/>
      <point x="170" y="103"/>
      <point x="192" y="74"/>
      <point x="223" y="56" type="curve" smooth="yes"/>
      <point x="252" y="40"/>
      <point x="285" y="33"/>
      <point x="323" y="33" type="curve" smooth="yes" name="SP"/>
      <point x="370" y="33"/>
      <point x="405" y="46"/>
      <point x="432" y="73" type="curve" smooth="yes"/>
      <point x="464" y="105"/>
      <point x="480" y="159"/>
      <point x="480" y="238" type="curve" smooth="yes"/>
      <point x="480" y="317"/>
      <point x="464" y="371"/>
      <point x="432" y="403" type="curve" smooth="yes"/>
      <point x="405" y="429"/>
      <point x="370" y="443"/>
      <point x="323" y="443" type="curve" smooth="yes" name="SP"/>
      <point x="285" y="443"/>
      <point x="252" y="435"/>
      <point x="223" y="419" type="curve" smooth="yes"/>
      <point x="192" y="401"/>
      <point x="170" y="372"/>
      <point x="156" y="334" type="curve"/>
      <point x="156" y="339" type="line"/>
      <point x="164" y="434"/>
      <point x="227" y="486"/>
      <point x="330" y="486" type="curve" smooth="yes" name="SP"/>
      <point x="389" y="486"/>
      <point x="432" y="467"/>
      <point x="465" y="434" type="curve" smooth="yes"/>
      <point x="504" y="395"/>
      <point x="523" y="332"/>
      <point x="523" y="238" type="curve" smooth="yes"/>
      <point x="523" y="144"/>
      <point x="504" y="80"/>
      <point x="465" y="41" type="curve" smooth="yes"/>
      <point x="432" y="8"/>
      <point x="389" y="-11"/>
    </contour>
  </outline>
</glyph>
<glyph name="c" format="1">
  <advance width="537"/>
  <unicode hex="0063"/>
  <outline>
    <contour>
      <point x="391" y="334" type="line"/>
      <point x="391" y="440" type="line"/>
      <point x="438" y="453" type="line"/>
      <point x="438" y="334" type="line"/>
    </contour>
    <contour>
      <point x="296" y="-11" type="curve" smooth="yes" name=""/>
      <point x="222" y="-11"/>
      <point x="167" y="9"/>
      <point x="134" y="42" type="curve" smooth="yes" name=""/>
      <point x="96" y="80"/>
      <point x="77" y="149"/>
      <point x="77" y="233" type="curve" smooth="yes"/>
      <point x="77" y="318"/>
      <point x="98" y="389"/>
      <point x="136" y="428" type="curve" smooth="yes" name=""/>
      <point x="172" y="463"/>
      <point x="226" y="479"/>
      <point x="286" y="479" type="curve" smooth="yes" name=""/>
      <point x="335" y="479"/>
      <point x="388" y="468"/>
      <point x="438" y="453" type="curve"/>
      <point x="429" y="406" type="line"/>
      <point x="363" y="429"/>
      <point x="335" y="435"/>
      <point x="286" y="435" type="curve" smooth="yes"/>
      <point x="237" y="435"/>
      <point x="195" y="426"/>
      <point x="166" y="397" type="curve" smooth="yes" name=""/>
      <point x="136" y="367"/>
      <point x="122" y="315"/>
      <point x="122" y="233" type="curve" smooth="yes"/>
      <point x="122" y="160"/>
      <point x="136" y="105"/>
      <point x="166" y="76" type="curve" smooth="yes" name=""/>
      <point x="193" y="49"/>
      <point x="235" y="33"/>
      <point x="296" y="33" type="curve" smooth="yes" name=""/>
      <point x="350" y="33"/>
      <point x="394" y="46"/>
      <point x="445" y="69" type="curve"/>
      <point x="443" y="23" type="line"/>
      <point x="395" y="1"/>
      <point x="352" y="-11"/>
    </contour>
  </outline>
</glyph>
<glyph name="d" format="1">
  <advance width="594"/>
  <unicode hex="0064"/>
  <outline>
    <contour>
      <point x="269" y="-11" type="curve" smooth="yes" name="SP"/>
      <point x="210" y="-11"/>
      <point x="167" y="8"/>
      <point x="134" y="41" type="curve" smooth="yes"/>
      <point x="96" y="80"/>
      <point x="77" y="144"/>
      <point x="77" y="237" type="curve" smooth="yes"/>
      <point x="77" y="331"/>
      <point x="96" y="395"/>
      <point x="134" y="434" type="curve" smooth="yes"/>
      <point x="167" y="467"/>
      <point x="210" y="486"/>
      <point x="269" y="486" type="curve" smooth="yes" name="SP"/>
      <point x="373" y="486"/>
      <point x="436" y="434"/>
      <point x="444" y="339" type="curve"/>
      <point x="443" y="334" type="line"/>
      <point x="429" y="372"/>
      <point x="407" y="401"/>
      <point x="376" y="419" type="curve" smooth="yes"/>
      <point x="348" y="435"/>
      <point x="315" y="443"/>
      <point x="276" y="443" type="curve" smooth="yes" name="SP"/>
      <point x="230" y="443"/>
      <point x="194" y="429"/>
      <point x="168" y="403" type="curve" smooth="yes"/>
      <point x="136" y="371"/>
      <point x="119" y="316"/>
      <point x="119" y="237" type="curve" smooth="yes"/>
      <point x="119" y="159"/>
      <point x="136" y="105"/>
      <point x="168" y="73" type="curve" smooth="yes"/>
      <point x="194" y="46"/>
      <point x="230" y="33"/>
      <point x="276" y="33" type="curve" smooth="yes" name="SP"/>
      <point x="315" y="33"/>
      <point x="348" y="40"/>
      <point x="376" y="56" type="curve" smooth="yes"/>
      <point x="407" y="74"/>
      <point x="429" y="103"/>
      <point x="443" y="141" type="curve"/>
      <point x="444" y="136" type="line"/>
      <point x="436" y="41"/>
      <point x="373" y="-11"/>
    </contour>
    <contour>
      <point x="443" y="0" type="line"/>
      <point x="442" y="129" type="line"/>
      <point x="442" y="641" type="line"/>
      <point x="453" y="632" type="line"/>
      <point x="363" y="632" type="line"/>
      <point x="363" y="675" type="line"/>
      <point x="487" y="675" type="line"/>
      <point x="487" y="0" type="line"/>
    </contour>
  </outline>
</glyph>
<glyph name="e" format="1">
  <advance width="565"/>
  <unicode hex="0065"/>
  <outline>
    <contour>
      <point x="301" y="-11" type="curve" smooth="yes" name=""/>
      <point x="228" y="-11"/>
      <point x="168" y="9"/>
      <point x="134" y="43" type="curve" smooth="yes" name=""/>
      <point x="96" y="81"/>
      <point x="77" y="151"/>
      <point x="77" y="234" type="curve" smooth="yes"/>
      <point x="77" y="319"/>
      <point x="99" y="391"/>
      <point x="137" y="430" type="curve" smooth="yes" name=""/>
      <point x="170" y="463"/>
      <point x="225" y="479"/>
      <point x="285" y="479" type="curve" smooth="yes" name=""/>
      <point x="349" y="479"/>
      <point x="396" y="462"/>
      <point x="422" y="433" type="curve" smooth="yes" name=""/>
      <point x="459" y="392"/>
      <point x="477" y="305"/>
      <point x="469" y="215" type="curve"/>
      <point x="101" y="215" type="line"/>
      <point x="101" y="255" type="line"/>
      <point x="438" y="255" type="line"/>
      <point x="427" y="237" type="line"/>
      <point x="432" y="313"/>
      <point x="416" y="369"/>
      <point x="389" y="399" type="curve" smooth="yes" name=""/>
      <point x="369" y="423"/>
      <point x="337" y="436"/>
      <point x="282" y="436" type="curve" smooth="yes" name=""/>
      <point x="234" y="436"/>
      <point x="195" y="427"/>
      <point x="166" y="398" type="curve" smooth="yes" name=""/>
      <point x="136" y="367"/>
      <point x="122" y="315"/>
      <point x="122" y="242" type="curve" smooth="yes"/>
      <point x="122" y="227" type="line" smooth="yes"/>
      <point x="122" y="155"/>
      <point x="135" y="106"/>
      <point x="165" y="77" type="curve" smooth="yes" name=""/>
      <point x="193" y="48"/>
      <point x="239" y="33"/>
      <point x="302" y="33" type="curve" smooth="yes" name=""/>
      <point x="361" y="33"/>
      <point x="410" y="44"/>
      <point x="461" y="65" type="curve"/>
      <point x="457" y="19" type="line"/>
      <point x="410" y="-1"/>
      <point x="361" y="-11"/>
    </contour>
  </outline>
</glyph>
<glyph name="f" format="1">
  <advance width="366"/>
  <unicode hex="0066"/>
  <outline>
    <contour>
      <point x="365" y="469" type="line"/>
      <point x="27" y="469" type="line"/>
      <point x="27" y="426" type="line"/>
      <point x="365" y="426" type="line"/>
    </contour>
    <contour>
      <point x="174" y="0" type="line"/>
      <point x="174" y="506" type="line" smooth="yes"/>
      <point x="174" y="556"/>
      <point x="184" y="588"/>
      <point x="206" y="610" type="curve" smooth="yes"/>
      <point x="227" y="631"/>
      <point x="259" y="640"/>
      <point x="307" y="640" type="curve" smooth="yes"/>
      <point x="333" y="640"/>
      <point x="358" y="639"/>
      <point x="380" y="635" type="curve"/>
      <point x="377" y="681" type="line"/>
      <point x="356" y="683"/>
      <point x="332" y="684"/>
      <point x="304" y="684" type="curve" smooth="yes"/>
      <point x="245" y="684"/>
      <point x="201" y="669"/>
      <point x="171" y="640" type="curve" smooth="yes"/>
      <point x="143" y="611"/>
      <point x="129" y="569"/>
      <point x="129" y="506" type="curve" smooth="yes"/>
      <point x="129" y="0" type="line"/>
    </contour>
  </outline>
</glyph>
<glyph name="g" format="1">
  <advance width="582"/>
  <unicode hex="0067"/>
  <outline>
    <contour>
      <point x="274" y="-207" type="curve" smooth="yes"/>
      <point x="223" y="-207"/>
      <point x="163" y="-198"/>
      <point x="105" y="-185" type="curve"/>
      <point x="103" y="-137" type="line"/>
      <point x="165" y="-153"/>
      <point x="222" y="-163"/>
      <point x="277" y="-163" type="curve" smooth="yes"/>
      <point x="347" y="-163"/>
      <point x="388" y="-152"/>
      <point x="412" y="-128" type="curve" smooth="yes"/>
      <point x="434" y="-106"/>
      <point x="443" y="-69"/>
      <point x="443" y="3" type="curve" smooth="yes"/>
      <point x="443" y="339" type="line"/>
      <point x="444" y="469" type="line"/>
      <point x="488" y="469" type="line"/>
      <point x="488" y="-5" type="line" smooth="yes"/>
      <point x="488" y="-85"/>
      <point x="476" y="-125"/>
      <point x="444" y="-157" type="curve" smooth="yes"/>
      <point x="411" y="-190"/>
      <point x="355" y="-207"/>
    </contour>
    <contour>
      <point x="270" y="-11" type="curve" smooth="yes" name="SP"/>
      <point x="211" y="-11"/>
      <point x="168" y="8"/>
      <point x="135" y="41" type="curve" smooth="yes"/>
      <point x="97" y="79"/>
      <point x="78" y="144"/>
      <point x="78" y="237" type="curve" smooth="yes"/>
      <point x="78" y="331"/>
      <point x="97" y="395"/>
      <point x="135" y="434" type="curve" smooth="yes"/>
      <point x="168" y="467"/>
      <point x="211" y="486"/>
      <point x="270" y="486" type="curve" smooth="yes" name="SP"/>
      <point x="374" y="486"/>
      <point x="437" y="434"/>
      <point x="445" y="339" type="curve"/>
      <point x="444" y="334" type="line"/>
      <point x="430" y="372"/>
      <point x="408" y="401"/>
      <point x="377" y="419" type="curve" smooth="yes"/>
      <point x="349" y="435"/>
      <point x="316" y="443"/>
      <point x="277" y="443" type="curve" smooth="yes" name="SP"/>
      <point x="231" y="443"/>
      <point x="195" y="429"/>
      <point x="169" y="403" type="curve" smooth="yes"/>
      <point x="137" y="371"/>
      <point x="120" y="316"/>
      <point x="120" y="237" type="curve" smooth="yes"/>
      <point x="120" y="159"/>
      <point x="137" y="104"/>
      <point x="169" y="72" type="curve" smooth="yes"/>
      <point x="195" y="46"/>
      <point x="231" y="33"/>
      <point x="277" y="33" type="curve" smooth="yes" name="SP"/>
      <point x="316" y="33"/>
      <point x="349" y="39"/>
      <point x="377" y="55" type="curve" smooth="yes"/>
      <point x="408" y="73"/>
      <point x="430" y="103"/>
      <point x="444" y="140" type="curve"/>
      <point x="445" y="136" type="line"/>
      <point x="437" y="41"/>
      <point x="374" y="-11"/>
    </contour>
  </outline>
</glyph>
<glyph name="h" format="1">
  <advance width="609"/>
  <unicode hex="0068"/>
  <outline>
    <contour>
      <point x="113" y="0" type="line"/>
      <point x="157" y="0" type="line"/>
      <point x="157" y="675" type="line"/>
      <point x="34" y="675" type="line"/>
      <point x="34" y="632" type="line"/>
      <point x="123" y="632" type="line"/>
      <point x="113" y="641" type="line"/>
    </contour>
    <contour>
      <point x="501" y="0" type="line"/>
      <point x="501" y="298" type="line" smooth="yes"/>
      <point x="501" y="372"/>
      <point x="488" y="417"/>
      <point x="460" y="446" type="curve" smooth="yes"/>
      <point x="432" y="474"/>
      <point x="392" y="486"/>
      <point x="331" y="486" type="curve" smooth="yes" name="SP"/>
      <point x="227" y="486"/>
      <point x="163" y="433"/>
      <point x="156" y="340" type="curve"/>
      <point x="156" y="335" type="line"/>
      <point x="169" y="371"/>
      <point x="190" y="399"/>
      <point x="221" y="417" type="curve" smooth="yes"/>
      <point x="248" y="433"/>
      <point x="280" y="440"/>
      <point x="319" y="440" type="curve" smooth="yes" name="SP"/>
      <point x="370" y="440"/>
      <point x="402" y="431"/>
      <point x="424" y="409" type="curve" smooth="yes"/>
      <point x="447" y="386"/>
      <point x="457" y="352"/>
      <point x="457" y="299" type="curve" smooth="yes"/>
      <point x="457" y="0" type="line"/>
    </contour>
  </outline>
</glyph>
<glyph name="i" format="1">
  <advance width="304"/>
  <unicode hex="0069"/>
  <outline>
    <contour>
      <point x="188" y="0" type="line"/>
      <point x="188" y="469" type="line"/>
      <point x="66" y="469" type="line"/>
      <point x="66" y="426" type="line"/>
      <point x="154" y="426" type="line"/>
      <point x="143" y="435" type="line"/>
      <point x="143" y="0" type="line"/>
    </contour>
    <contour>
      <point x="120" y="639" type="curve" smooth="yes"/>
      <point x="120" y="614"/>
      <point x="132" y="603"/>
      <point x="157" y="603" type="curve" smooth="yes" name=""/>
      <point x="183" y="603"/>
      <point x="194" y="614"/>
      <point x="194" y="639" type="curve" smooth="yes"/>
      <point x="194" y="664"/>
      <point x="183" y="675"/>
      <point x="157" y="675" type="curve" smooth="yes" name=""/>
      <point x="132" y="675"/>
      <point x="120" y="664"/>
    </contour>
  </outline>
</glyph>
<glyph name="m" format="1">
  <advance width="985"/>
  <unicode hex="006D"/>
  <outline>
    <contour>
      <point x="191" y="0" type="line"/>
      <point x="191" y="340" type="line"/>
      <point x="190" y="344" type="line"/>
      <point x="190" y="475" type="line"/>
      <point x="67" y="475" type="line"/>
      <point x="67" y="432" type="line"/>
      <point x="157" y="432" type="line"/>
      <point x="146" y="437" type="line"/>
      <point x="146" y="0" type="line"/>
    </contour>
    <contour>
      <point x="535" y="0" type="line"/>
      <point x="535" y="341" type="line"/>
      <point x="521" y="341" type="line"/>
      <point x="535" y="325" type="line"/>
      <point x="530" y="385"/>
      <point x="517" y="422"/>
      <point x="495" y="445" type="curve" smooth="yes"/>
      <point x="467" y="473"/>
      <point x="427" y="486"/>
      <point x="364" y="486" type="curve" smooth="yes" name="SP"/>
      <point x="260" y="486"/>
      <point x="197" y="433"/>
      <point x="189" y="340" type="curve"/>
      <point x="190" y="335" type="line"/>
      <point x="202" y="371"/>
      <point x="223" y="399"/>
      <point x="254" y="417" type="curve" smooth="yes"/>
      <point x="282" y="433"/>
      <point x="313" y="440"/>
      <point x="352" y="440" type="curve" smooth="yes" name="SP"/>
      <point x="404" y="440"/>
      <point x="436" y="431"/>
      <point x="457" y="409" type="curve" smooth="yes"/>
      <point x="480" y="386"/>
      <point x="490" y="351"/>
      <point x="490" y="299" type="curve" smooth="yes"/>
      <point x="490" y="0" type="line"/>
    </contour>
    <contour>
      <point x="879" y="0" type="line"/>
      <point x="879" y="298" type="line" smooth="yes"/>
      <point x="879" y="374"/>
      <point x="866" y="416"/>
      <point x="836" y="447" type="curve" smooth="yes"/>
      <point x="809" y="474"/>
      <point x="768" y="486"/>
      <point x="708" y="486" type="curve" smooth="yes" name="SP"/>
      <point x="604" y="486"/>
      <point x="540" y="433"/>
      <point x="532" y="340" type="curve"/>
      <point x="534" y="335" type="line"/>
      <point x="546" y="371"/>
      <point x="567" y="399"/>
      <point x="598" y="417" type="curve" smooth="yes"/>
      <point x="626" y="433"/>
      <point x="657" y="440"/>
      <point x="696" y="440" type="curve" smooth="yes" name="SP"/>
      <point x="748" y="440"/>
      <point x="780" y="431"/>
      <point x="801" y="409" type="curve" smooth="yes"/>
      <point x="824" y="386"/>
      <point x="834" y="351"/>
      <point x="834" y="299" type="curve" smooth="yes"/>
      <point x="834" y="0" type="line"/>
    </contour>
  </outline>
</glyph>
<glyph name="n" format="1">
  <advance width="641"/>
  <unicode hex="006E"/>
  <outline>
    <contour>
      <point x="189" y="0" type="line"/>
      <point x="144" y="0" type="line"/>
      <point x="144" y="437" type="line"/>
      <point x="155" y="432" type="line"/>
      <point x="66" y="432" type="line"/>
      <point x="66" y="475" type="line"/>
      <point x="188" y="475" type="line"/>
      <point x="188" y="344" type="line"/>
      <point x="189" y="340" type="line"/>
    </contour>
    <contour>
      <point x="533" y="0" type="line"/>
      <point x="488" y="0" type="line"/>
      <point x="488" y="299" type="line" smooth="yes"/>
      <point x="488" y="352"/>
      <point x="478" y="386"/>
      <point x="456" y="409" type="curve" smooth="yes"/>
      <point x="434" y="431"/>
      <point x="402" y="440"/>
      <point x="351" y="440" type="curve" smooth="yes" name="SP"/>
      <point x="311" y="440"/>
      <point x="280" y="433"/>
      <point x="252" y="417" type="curve" smooth="yes"/>
      <point x="221" y="399"/>
      <point x="200" y="371"/>
      <point x="188" y="335" type="curve"/>
      <point x="187" y="340" type="line"/>
      <point x="195" y="433"/>
      <point x="258" y="486"/>
      <point x="362" y="486" type="curve" smooth="yes" name="SP"/>
      <point x="423" y="486"/>
      <point x="464" y="474"/>
      <point x="492" y="445" type="curve" smooth="yes"/>
      <point x="520" y="417"/>
      <point x="533" y="372"/>
      <point x="533" y="298" type="curve" smooth="yes"/>
    </contour>
  </outline>
</glyph>
<glyph name="o" format="1">
  <advance width="582"/>
  <unicode hex="006F"/>
  <outline>
    <contour>
      <point x="291" y="33" type="curve" smooth="yes" name=""/>
      <point x="343" y="33"/>
      <point x="382" y="47"/>
      <point x="413" y="77" type="curve" smooth="yes"/>
      <point x="443" y="108"/>
      <point x="460" y="161"/>
      <point x="460" y="234" type="curve" smooth="yes"/>
      <point x="460" y="308"/>
      <point x="443" y="361"/>
      <point x="413" y="391" type="curve" smooth="yes"/>
      <point x="382" y="422"/>
      <point x="343" y="435"/>
      <point x="291" y="435" type="curve" smooth="yes" name=""/>
      <point x="239" y="435"/>
      <point x="200" y="422"/>
      <point x="169" y="391" type="curve" smooth="yes"/>
      <point x="139" y="361"/>
      <point x="122" y="308"/>
      <point x="122" y="235" type="curve" smooth="yes"/>
      <point x="122" y="161"/>
      <point x="139" y="108"/>
      <point x="169" y="77" type="curve" smooth="yes"/>
      <point x="200" y="47"/>
      <point x="239" y="33"/>
    </contour>
    <contour>
      <point x="291" y="-11" type="curve" smooth="yes" name=""/>
      <point x="229" y="-11"/>
      <point x="178" y="9"/>
      <point x="141" y="46" type="curve" smooth="yes"/>
      <point x="102" y="85"/>
      <point x="80" y="151"/>
      <point x="80" y="235" type="curve" smooth="yes"/>
      <point x="80" y="317"/>
      <point x="102" y="384"/>
      <point x="141" y="423" type="curve" smooth="yes"/>
      <point x="178" y="460"/>
      <point x="229" y="479"/>
      <point x="291" y="479" type="curve" smooth="yes" name=""/>
      <point x="353" y="479"/>
      <point x="404" y="460"/>
      <point x="441" y="423" type="curve" smooth="yes"/>
      <point x="480" y="384"/>
      <point x="502" y="317"/>
      <point x="502" y="234" type="curve" smooth="yes"/>
      <point x="502" y="151"/>
      <point x="480" y="85"/>
      <point x="441" y="46" type="curve" smooth="yes"/>
      <point x="404" y="9"/>
      <point x="353" y="-11"/>
    </contour>
  </outline>
</glyph>
<glyph name="p" format="1">
  <advance width="592"/>
  <unicode hex="0070"/>
  <outline>
    <contour>
      <point x="107" y="-203" type="line"/>
      <point x="152" y="-203" type="line"/>
      <point x="152" y="351" type="line"/>
      <point x="151" y="475" type="line"/>
      <point x="107" y="475" type="line"/>
    </contour>
    <contour>
      <point x="325" y="-11" type="curve" smooth="yes" name="SP"/>
      <point x="384" y="-11"/>
      <point x="427" y="8"/>
      <point x="460" y="41" type="curve" smooth="yes"/>
      <point x="498" y="80"/>
      <point x="517" y="144"/>
      <point x="517" y="238" type="curve" smooth="yes"/>
      <point x="517" y="332"/>
      <point x="498" y="395"/>
      <point x="460" y="434" type="curve" smooth="yes"/>
      <point x="427" y="467"/>
      <point x="384" y="486"/>
      <point x="325" y="486" type="curve" smooth="yes" name="SP"/>
      <point x="221" y="486"/>
      <point x="158" y="434"/>
      <point x="150" y="339" type="curve"/>
      <point x="151" y="334" type="line"/>
      <point x="165" y="372"/>
      <point x="187" y="401"/>
      <point x="218" y="419" type="curve" smooth="yes"/>
      <point x="246" y="435"/>
      <point x="279" y="443"/>
      <point x="318" y="443" type="curve" smooth="yes" name="SP"/>
      <point x="364" y="443"/>
      <point x="400" y="429"/>
      <point x="426" y="403" type="curve" smooth="yes"/>
      <point x="458" y="371"/>
      <point x="475" y="317"/>
      <point x="475" y="238" type="curve" smooth="yes"/>
      <point x="475" y="159"/>
      <point x="458" y="105"/>
      <point x="426" y="73" type="curve" smooth="yes"/>
      <point x="400" y="46"/>
      <point x="364" y="33"/>
      <point x="318" y="33" type="curve" smooth="yes" name="SP"/>
      <point x="279" y="33"/>
      <point x="246" y="40"/>
      <point x="218" y="56" type="curve" smooth="yes"/>
      <point x="187" y="74"/>
      <point x="165" y="103"/>
      <point x="151" y="141" type="curve"/>
      <point x="150" y="136" type="line"/>
      <point x="158" y="41"/>
      <point x="221" y="-11"/>
    </contour>
  </outline>
</glyph>
<glyph name="q" format="1">
  <advance width="595"/>
  <unicode hex="0071"/>
  <outline>
    <contour>
      <point x="443" y="-203" type="line"/>
      <point x="443" y="346" type="line"/>
      <point x="444" y="475" type="line"/>
      <point x="488" y="475" type="line"/>
      <point x="488" y="-203" type="line"/>
    </contour>
    <contour>
      <point x="270" y="-11" type="curve" smooth="yes" name="SP"/>
      <point x="211" y="-11"/>
      <point x="168" y="8"/>
      <point x="135" y="41" type="curve" smooth="yes"/>
      <point x="97" y="80"/>
      <point x="78" y="144"/>
      <point x="78" y="237" type="curve" smooth="yes"/>
      <point x="78" y="331"/>
      <point x="97" y="395"/>
      <point x="135" y="434" type="curve" smooth="yes"/>
      <point x="168" y="467"/>
      <point x="211" y="486"/>
      <point x="270" y="486" type="curve" smooth="yes" name="SP"/>
      <point x="374" y="486"/>
      <point x="437" y="434"/>
      <point x="445" y="339" type="curve"/>
      <point x="444" y="334" type="line"/>
      <point x="430" y="372"/>
      <point x="408" y="401"/>
      <point x="377" y="419" type="curve" smooth="yes"/>
      <point x="349" y="435"/>
      <point x="316" y="443"/>
      <point x="277" y="443" type="curve" smooth="yes" name="SP"/>
      <point x="231" y="443"/>
      <point x="195" y="429"/>
      <point x="169" y="403" type="curve" smooth="yes"/>
      <point x="137" y="371"/>
      <point x="120" y="316"/>
      <point x="120" y="237" type="curve" smooth="yes"/>
      <point x="120" y="159"/>
      <point x="137" y="105"/>
      <point x="169" y="73" type="curve" smooth="yes"/>
      <point x="195" y="46"/>
      <point x="231" y="33"/>
      <point x="277" y="33" type="curve" smooth="yes" name="SP"/>
      <point x="316" y="33"/>
      <point x="349" y="40"/>
      <point x="377" y="56" type="curve" smooth="yes"/>
      <point x="408" y="74"/>
      <point x="430" y="103"/>
      <point x="444" y="141" type="curve"/>
      <point x="445" y="136" type="line"/>
      <point x="437" y="41"/>
      <point x="374" y="-11"/>
    </contour>
  </outline>
</glyph>
<glyph name="r" format="1">
  <advance width="398"/>
  <unicode hex="0072"/>
  <outline>
    <contour>
      <point x="367" y="430" type="line" name="SP"/>
      <point x="331" y="430"/>
      <point x="302" y="426"/>
      <point x="277" y="418" type="curve" smooth="yes"/>
      <point x="231" y="403"/>
      <point x="197" y="371"/>
      <point x="171" y="319" type="curve"/>
      <point x="170" y="325" type="line"/>
      <point x="189" y="427"/>
      <point x="257" y="479"/>
      <point x="368" y="479" type="curve" name="SP"/>
    </contour>
    <contour>
      <point x="128" y="0" type="line"/>
      <point x="128" y="430" type="line"/>
      <point x="139" y="426" type="line"/>
      <point x="50" y="426" type="line"/>
      <point x="50" y="469" type="line"/>
      <point x="172" y="469" type="line"/>
      <point x="173" y="328" type="line"/>
      <point x="173" y="324" type="line"/>
      <point x="173" y="0" type="line"/>
    </contour>
  </outline>
</glyph>
<glyph name="s" format="1">
  <advance width="501"/>
  <unicode hex="0073"/>
  <outline>
    <contour>
      <point x="236" y="-11" type="curve" smooth="yes"/>
      <point x="359" y="-11"/>
      <point x="424" y="38"/>
      <point x="424" y="124" type="curve" smooth="yes"/>
      <point x="424" y="184"/>
      <point x="379" y="223"/>
      <point x="280" y="246" type="curve" smooth="yes"/>
      <point x="225" y="258" type="line" smooth="yes"/>
      <point x="149" y="276"/>
      <point x="121" y="303"/>
      <point x="121" y="351" type="curve" smooth="yes"/>
      <point x="121" y="379"/>
      <point x="127" y="398"/>
      <point x="142" y="413" type="curve" smooth="yes"/>
      <point x="162" y="431"/>
      <point x="198" y="438"/>
      <point x="251" y="438" type="curve" smooth="yes"/>
      <point x="297" y="438"/>
      <point x="333" y="431"/>
      <point x="399" y="409" type="curve"/>
      <point x="408" y="455" type="line"/>
      <point x="358" y="471"/>
      <point x="301" y="479"/>
      <point x="249" y="479" type="curve" smooth="yes"/>
      <point x="131" y="479"/>
      <point x="76" y="438"/>
      <point x="76" y="351" type="curve" smooth="yes"/>
      <point x="76" y="282"/>
      <point x="115" y="246"/>
      <point x="214" y="223" type="curve" smooth="yes"/>
      <point x="269" y="210" type="line" smooth="yes"/>
      <point x="347" y="192"/>
      <point x="380" y="164"/>
      <point x="380" y="122" type="curve" smooth="yes"/>
      <point x="380" y="62"/>
      <point x="332" y="32"/>
      <point x="236" y="32" type="curve" smooth="yes"/>
      <point x="171" y="32"/>
      <point x="117" y="43"/>
      <point x="72" y="63" type="curve"/>
      <point x="69" y="17" type="line"/>
      <point x="120" y="-2"/>
      <point x="175" y="-11"/>
    </contour>
    <contour>
      <point x="361" y="337" type="line"/>
      <point x="408" y="337" type="line"/>
      <point x="408" y="455" type="line"/>
      <point x="361" y="451" type="line"/>
    </contour>
  </outline>
</glyph>
<glyph name="t" format="1">
  <advance width="415"/>
  <unicode hex="0074"/>
  <outline>
    <contour>
      <point x="292" y="-11" type="curve" smooth="yes"/>
      <point x="240" y="-11"/>
      <point x="200" y="4"/>
      <point x="173" y="31" type="curve" smooth="yes"/>
      <point x="145" y="59"/>
      <point x="132" y="98"/>
      <point x="132" y="157" type="curve" smooth="yes"/>
      <point x="132" y="556" type="line"/>
      <point x="176" y="567" type="line"/>
      <point x="177" y="157" type="line" smooth="yes"/>
      <point x="177" y="109"/>
      <point x="185" y="81"/>
      <point x="205" y="62" type="curve" smooth="yes"/>
      <point x="224" y="43"/>
      <point x="251" y="34"/>
      <point x="291" y="34" type="curve" smooth="yes"/>
      <point x="314" y="34"/>
      <point x="335" y="37"/>
      <point x="368" y="46" type="curve"/>
      <point x="367" y="0" type="line"/>
      <point x="341" y="-8"/>
      <point x="316" y="-11"/>
    </contour>
    <contour>
      <point x="36" y="426" type="line"/>
      <point x="36" y="469" type="line"/>
      <point x="341" y="469" type="line"/>
      <point x="341" y="426" type="line"/>
    </contour>
  </outline>
</glyph>
<glyph name="u" format="1">
  <advance width="641"/>
  <unicode hex="0075"/>
  <outline>
    <contour>
      <point x="452" y="475" type="line"/>
      <point x="452" y="135" type="line"/>
      <point x="453" y="131" type="line"/>
      <point x="453" y="0" type="line"/>
      <point x="575" y="0" type="line"/>
      <point x="575" y="43" type="line"/>
      <point x="486" y="43" type="line"/>
      <point x="497" y="39" type="line"/>
      <point x="497" y="475" type="line"/>
    </contour>
    <contour>
      <point x="108" y="475" type="line"/>
      <point x="108" y="177" type="line" smooth="yes"/>
      <point x="108" y="106"/>
      <point x="120" y="62"/>
      <point x="146" y="34" type="curve" smooth="yes"/>
      <point x="173" y="3"/>
      <point x="214" y="-11"/>
      <point x="279" y="-11" type="curve" smooth="yes" name="SP"/>
      <point x="383" y="-11"/>
      <point x="446" y="42"/>
      <point x="454" y="135" type="curve"/>
      <point x="453" y="141" type="line"/>
      <point x="441" y="104"/>
      <point x="420" y="76"/>
      <point x="389" y="58" type="curve" smooth="yes"/>
      <point x="361" y="43"/>
      <point x="330" y="35"/>
      <point x="290" y="35" type="curve" smooth="yes" name="SP"/>
      <point x="239" y="35"/>
      <point x="207" y="45"/>
      <point x="185" y="66" type="curve" smooth="yes"/>
      <point x="163" y="89"/>
      <point x="153" y="124"/>
      <point x="153" y="177" type="curve" smooth="yes"/>
      <point x="153" y="475" type="line"/>
    </contour>
  </outline>
</glyph>
<glyph name="v" format="1">
  <advance width="514"/>
  <unicode hex="0076"/>
  <outline>
    <contour>
      <point x="224" y="0" type="line"/>
      <point x="270" y="0" type="line"/>
      <point x="217" y="132" type="line"/>
      <point x="77" y="475" type="line"/>
      <point x="30" y="475" type="line"/>
    </contour>
    <contour>
      <point x="289" y="0" type="line"/>
      <point x="483" y="475" type="line"/>
      <point x="438" y="475" type="line"/>
      <point x="298" y="132" type="line"/>
      <point x="245" y="0" type="line"/>
    </contour>
  </outline>
</glyph>
<glyph name="bar" format="1">
  <unicode hex="007C"/>
  <outline>
    <contour>
      <point x="-1" y="-205" type="line"/>
      <point x="1" y="-205" type="line"/>
      <point x="1" y="620" type="line"/>
      <point x="-1" y="620" type="line"/>
    </contour>
  </outline>
</glyph>
<glyph name="a.001" format="1">
  <advance width="594"/>
  <outline>
    <contour>
      <point x="270" y="-10" type="curve" smooth="yes" name="SP"/>
      <point x="213" y="-10"/>
      <point x="170" y="7"/>
      <point x="137" y="40" type="curve" smooth="yes"/>
      <point x="98" y="79"/>
      <point x="79" y="143"/>
      <point x="79" y="237" type="curve" smooth="yes"/>
      <point x="79" y="332"/>
      <point x="98" y="396"/>
      <point x="137" y="435" type="curve" smooth="yes"/>
      <point x="170" y="468"/>
      <point x="213" y="486"/>
      <point x="270" y="486" type="curve" smooth="yes" name="SP"/>
      <point x="376" y="486"/>
      <point x="439" y="435"/>
      <point x="447" y="340" type="curve"/>
      <point x="446" y="335" type="line"/>
      <point x="433" y="372"/>
      <point x="411" y="400"/>
      <point x="380" y="418" type="curve" smooth="yes"/>
      <point x="353" y="434"/>
      <point x="320" y="441"/>
      <point x="281" y="441" type="curve" smooth="yes" name="SP"/>
      <point x="233" y="441"/>
      <point x="199" y="428"/>
      <point x="172" y="402" type="curve" smooth="yes"/>
      <point x="140" y="370"/>
      <point x="123" y="316"/>
      <point x="123" y="237" type="curve" smooth="yes"/>
      <point x="123" y="159"/>
      <point x="140" y="105"/>
      <point x="172" y="73" type="curve" smooth="yes"/>
      <point x="198" y="47"/>
      <point x="233" y="35"/>
      <point x="281" y="35" type="curve" smooth="yes" name="SP"/>
      <point x="320" y="35"/>
      <point x="353" y="41"/>
      <point x="380" y="56" type="curve" smooth="yes"/>
      <point x="411" y="75"/>
      <point x="433" y="103"/>
      <point x="446" y="140" type="curve"/>
      <point x="447" y="136" type="line"/>
      <point x="439" y="41"/>
      <point x="376" y="-10"/>
    </contour>
    <contour>
      <point x="490" y="0" type="line"/>
      <point x="446" y="0" type="line"/>
      <point x="445" y="129" type="line"/>
      <point x="445" y="344" type="line"/>
      <point x="446" y="469" type="line"/>
      <point x="490" y="469" type="line"/>
    </contour>
  </outline>
</glyph>
